<svg xmlns="http://www.w3.org/2000/svg" width="83" height="83" viewBox="0 0 83 83">
  <g id="back" transform="translate(322 874) rotate(180)">
    <g id="Polígono_1" data-name="Polígono 1" transform="translate(322 791) rotate(90)" fill="none">
      <path d="M41.5,0,83,83H0Z" stroke="none"/>
      <path d="M 41.5 4.472122192382813 L 3.236061096191406 81 L 79.76393890380859 81 L 41.5 4.472122192382813 M 41.5 0 L 83 83 L 0 83 L 41.5 0 Z" stroke="none" fill="#fff"/>
    </g>
    <g id="Polígono_3" data-name="Polígono 3" transform="translate(304 804) rotate(90)" fill="none">
      <path d="M28.5,0,57,57H0Z" stroke="none"/>
      <path d="M 28.5 4.472133636474609 L 3.236064910888672 55 L 53.76393508911133 55 L 28.5 4.472133636474609 M 28.5 3.814697265625e-06 L 57 57 L 0 57 L 28.5 3.814697265625e-06 Z" stroke="none" fill="#fff"/>
    </g>
    <g id="Polígono_2" data-name="Polígono 2" transform="translate(322 791) rotate(90)" fill="none">
      <path d="M41.5,0,83,83H0Z" stroke="none"/>
      <path d="M 41.5 4.472122192382813 L 3.236061096191406 81 L 79.76393890380859 81 L 41.5 4.472122192382813 M 41.5 0 L 83 83 L 0 83 L 41.5 0 Z" stroke="none" fill="#fff"/>
    </g>
    <g id="Polígono_4" data-name="Polígono 4" transform="translate(304 804) rotate(90)" fill="none">
      <path d="M28.5,0,57,57H0Z" stroke="none"/>
      <path d="M 28.5 4.472133636474609 L 3.236064910888672 55 L 53.76393508911133 55 L 28.5 4.472133636474609 M 28.5 3.814697265625e-06 L 57 57 L 0 57 L 28.5 3.814697265625e-06 Z" stroke="none" fill="#fff"/>
    </g>
  </g>
</svg>
